<svg width="404" height="64" viewBox="0 0 404 64" fill="none" xmlns="http://www.w3.org/2000/svg">
<path d="M0.536011 15.8879V5.83994H37.272V15.8879H24.472V49.9999H13.336V15.8879H0.536011Z" fill="#316AE1"/>
<path d="M38.17 39.2479V26.7039C38.17 19.5359 41.754 15.9519 48.922 15.9519H57.882C65.05 15.9519 68.634 19.5359 68.634 26.7039V39.2479C68.634 46.4159 65.05 49.9999 57.882 49.9999H48.922C41.754 49.9999 38.17 46.4159 38.17 39.2479ZM48.858 39.8879C48.858 40.4426 49.1353 40.7199 49.69 40.7199H57.114C57.6687 40.7199 57.946 40.4426 57.946 39.8879V26.0639C57.946 25.5093 57.6687 25.2319 57.114 25.2319H49.69C49.1353 25.2319 48.858 25.5093 48.858 26.0639V39.8879Z" fill="#316AE1"/>
<path d="M75.527 49.9999V5.83994H92.039C104.754 5.83994 111.111 12.1973 111.111 24.9119V30.9279C111.111 43.6426 104.754 49.9999 92.039 49.9999H75.527ZM86.663 39.9519H92.679C97.543 39.9519 99.975 37.4986 99.975 32.5919V23.2479C99.975 18.3413 97.543 15.8879 92.679 15.8879H86.663V39.9519Z" fill="#316AE1"/>
<path d="M116.768 39.2479V26.7039C116.768 19.5359 120.352 15.9519 127.52 15.9519H136.48C143.648 15.9519 147.232 19.5359 147.232 26.7039V39.2479C147.232 46.4159 143.648 49.9999 136.48 49.9999H127.52C120.352 49.9999 116.768 46.4159 116.768 39.2479ZM127.456 39.8879C127.456 40.4426 127.733 40.7199 128.288 40.7199H135.712C136.266 40.7199 136.544 40.4426 136.544 39.8879V26.0639C136.544 25.5093 136.266 25.2319 135.712 25.2319H128.288C127.733 25.2319 127.456 25.5093 127.456 26.0639V39.8879Z" fill="#316AE1"/>
<path d="M167.579 49.9999V5.83994H189.34C196.849 5.83994 200.604 9.5946 200.604 17.1039V25.8079C200.604 33.2746 196.849 37.0079 189.34 37.0079H178.715V49.9999H167.579ZM178.715 26.9599H188.764C189.233 26.9599 189.467 26.7253 189.467 26.2559V16.5919C189.467 16.1226 189.233 15.8879 188.764 15.8879H178.715V26.9599Z" fill="#316AE1"/>
<path d="M205.826 49.9999V20.5599C207.447 17.4879 210.605 15.9519 215.298 15.9519H222.466L226.946 19.2799V25.2319H218.498C217.474 25.2319 216.813 25.4666 216.514 25.9359V49.9999H205.826Z" fill="#316AE1"/>
<path d="M230.525 39.2479V26.7039C230.525 19.5359 234.109 15.9519 241.277 15.9519H250.237C257.405 15.9519 260.989 19.5359 260.989 26.7039V39.2479C260.989 46.4159 257.405 49.9999 250.237 49.9999H241.277C234.109 49.9999 230.525 46.4159 230.525 39.2479ZM241.213 39.8879C241.213 40.4426 241.49 40.7199 242.045 40.7199H249.469C250.024 40.7199 250.301 40.4426 250.301 39.8879V26.0639C250.301 25.5093 250.024 25.2319 249.469 25.2319H242.045C241.49 25.2319 241.213 25.5093 241.213 26.0639V39.8879Z" fill="#316AE1"/>
<path d="M262.186 54.4799C265.557 54.2239 267.242 52.4319 267.242 49.1039V15.9519H277.93V47.7599C277.93 58.2559 272.682 63.5039 262.186 63.5039V54.4799ZM267.114 10.7039V0.783936H278.058V10.7039H267.114Z" fill="#316AE1"/>
<path d="M284.185 39.2479V26.7039C284.185 19.5359 287.769 15.9519 294.937 15.9519H303.257C310.425 15.9519 314.009 19.5359 314.009 26.7039V36.8799H294.873V39.8879C294.873 40.4426 295.15 40.7199 295.705 40.7199H312.729V46.6719L308.249 49.9999H294.937C287.769 49.9999 284.185 46.4159 284.185 39.2479ZM294.873 28.8159H303.321V26.0639C303.321 25.5093 303.044 25.2319 302.489 25.2319H295.705C295.15 25.2319 294.873 25.5093 294.873 26.0639V28.8159Z" fill="#316AE1"/>
<path d="M319.765 39.2479V26.7039C319.765 19.5359 323.349 15.9519 330.517 15.9519H342.101L346.581 19.2799V25.2319H331.285C330.73 25.2319 330.453 25.5093 330.453 26.0639V39.8879C330.453 40.4426 330.73 40.7199 331.285 40.7199H346.581V46.6719L342.101 49.9999H330.517C323.349 49.9999 319.765 46.4159 319.765 39.2479Z" fill="#316AE1"/>
<path d="M351.726 39.2479V5.83994H362.414V15.9519H372.846V25.2319H362.414V39.8879C362.414 40.4426 362.691 40.7199 363.246 40.7199H373.486V46.6719L369.006 49.9999H362.478C355.31 49.9999 351.726 46.4159 351.726 39.2479Z" fill="#316AE1"/>
<path d="M377.161 46.6719V40.7199H391.882C392.564 40.7199 392.906 40.2506 392.906 39.3119C392.906 38.3306 392.585 37.7759 391.945 37.6479L385.418 36.5599C379.914 35.6213 377.161 32.3573 377.161 26.7679C377.161 19.5573 380.746 15.9519 387.914 15.9519H397.449L401.93 19.2799V25.2319H388.746C388.063 25.2319 387.721 25.7013 387.721 26.6399C387.721 27.8773 388.063 28.5386 388.746 28.6239L395.273 29.7119C400.735 30.6079 403.466 33.7653 403.466 39.1839C403.466 46.3946 399.882 49.9999 392.714 49.9999H381.642L377.161 46.6719Z" fill="#316AE1"/>
</svg>
